<svg xmlns="http://www.w3.org/2000/svg" xmlns:svg="http://www.w3.org/2000/svg" id="svg110" width="740" height="280" version="1.1"><metadata id="metadata116"/><path id="path64" fill="#5CA831" d="M245 109.61c0-1.165-2.906-2.11-6.496-2.11H51.496c-3.586 0-6.496.945-6.496 2.11v60.778c0 1.166 2.91 2.112 6.496 2.112h187.008c3.59 0 6.496-.946 6.496-2.112V109.61"/><text id="text68" transform="translate(145 140)"><tspan id="tspan66" x="-76.087" y="12.242" fill="#FFFFFE" font-family="GillSans" font-size="36">Secondary</tspan></text><path id="path70" fill="#2A86C0" d="M470 109.61c0-1.165-2.906-2.11-6.496-2.11H276.496c-3.586 0-6.496.945-6.496 2.11v60.778c0 1.166 2.91 2.112 6.496 2.112h187.008c3.59 0 6.496-.946 6.496-2.112V109.61"/><text id="text74" transform="translate(370 140)"><tspan id="tspan72" x="-57.357" y="12" fill="#FFF" font-family="GillSans" font-size="36">Primary</tspan></text><path id="path76" fill="#818181" d="M694.863 109.61c0-1.165-2.905-2.11-6.496-2.11H501.359c-3.586 0-6.496.945-6.496 2.11v60.778c0 1.166 2.91 2.112 6.496 2.112h187.008c3.591 0 6.496-.946 6.496-2.112V109.61"/><text id="text80" transform="translate(594.863 140)"><tspan id="tspan78" x="-76.087" y="12" fill="#FFF" font-family="GillSans" font-size="36">Secondary</tspan></text><text id="text84" x="543.661" y="181.647"><tspan id="tspan82" x="523.109" y="182.527" font-size="11" style="font-size:11px;font-family:GillSans-Light">priority: 0</tspan></text><text id="text88" x="548.705" y="195.549"><tspan id="tspan86" x="522.934" y="196.516" font-size="11" style="font-size:11px;font-family:GillSans-Light">hidden: true</tspan></text><text id="text92" x="558.918" y="207.647"><tspan id="tspan90" x="523.471" y="208.701" font-size="11" style="font-size:11px;font-family:GillSans-Light">secondaryDelaySecs: 3600</tspan></text><g id="g100"><path id="path94" fill="#5CA831" d="M470 12.11c0-1.165-2.906-2.11-6.496-2.11H276.496c-3.586 0-6.496.945-6.496 2.11v60.778c0 1.166 2.91 2.112 6.496 2.112h187.008c3.59 0 6.496-.946 6.496-2.112V12.11"/><text id="text98" transform="translate(370 42.5)"><tspan id="tspan96" x="-76.087" y="12" fill="#FFFFFE" font-family="GillSans" font-size="36">Secondary</tspan></text></g><g id="g108"><path id="path102" fill="#5CA831" d="M470 207.11c0-1.165-2.906-2.11-6.496-2.11H276.496c-3.586 0-6.496.945-6.496 2.11v60.778c0 1.166 2.91 2.112 6.496 2.112h187.008c3.59 0 6.496-.946 6.496-2.112V207.11"/><text id="text106" transform="translate(370 237.5)"><tspan id="tspan104" x="-76.087" y="12" fill="#FFFFFE" font-family="GillSans" font-size="36">Secondary</tspan></text></g></svg>